<svg height="512" viewBox="0 0 74 74" width="512" xmlns="http://www.w3.org/2000/svg"><g id="line_color" data-name="line color"><circle cx="39.141" cy="41.739" fill="#fe7058" r="29.261"/><path d="m68.4 41.74a29.26 29.26 0 0 1 -29.26 29.26 28.73 28.73 0 0 1 -8.99-1.42 28.814 28.814 0 0 0 5.2.47 29.265 29.265 0 0 0 9.09-57.08 29.246 29.246 0 0 1 23.96 28.77z" fill="#ea6453"/><g fill="#323c6b"><path d="m55.961 66.166a.493.493 0 0 1 -.3-.1.5.5 0 0 1 -.095-.7 29.984 29.984 0 0 0 -34.1-46.333.5.5 0 0 1 -.342-.94 30.983 30.983 0 0 1 35.233 47.88.5.5 0 0 1 -.396.193z"/><path d="m11.933 53.019h-.019a.5.5 0 0 1 -.481-.519 30.755 30.755 0 0 1 17.83-26.825 32.434 32.434 0 0 1 4.656-1.759.5.5 0 0 1 .279.96 31.526 31.526 0 0 0 -4.513 1.7 29.759 29.759 0 0 0 -17.252 25.962.5.5 0 0 1 -.5.481z"/><path d="m26.362 68.539a.5.5 0 0 1 -.5-.468 31.211 31.211 0 0 1 17.8-30.051 30.727 30.727 0 0 1 5.186-1.891.5.5 0 1 1 .25.968 29.757 29.757 0 0 0 -5.015 1.83 30.2 30.2 0 0 0 -17.219 29.08.5.5 0 0 1 -.468.531z"/><path d="m33.578 70.944h-.029a.5.5 0 0 1 -.47-.529 30.961 30.961 0 0 1 17.8-26.238c.428-.2.855-.395 1.282-.559a.5.5 0 0 1 .359.934c-.407.156-.813.344-1.22.532a29.962 29.962 0 0 0 -17.22 25.391.5.5 0 0 1 -.502.469z"/><path d="m41.69 71.361a.491.491 0 0 1 -.124-.016.5.5 0 0 1 -.36-.609 31.047 31.047 0 0 1 12.125-17.6.5.5 0 0 1 .578.816 30.039 30.039 0 0 0 -11.734 17.033.5.5 0 0 1 -.485.376z"/><path d="m48.81 69.854a.5.5 0 0 1 -.42-.772 29.705 29.705 0 0 0 4.762-16.21 30 30 0 0 0 -29.964-29.964 29.5 29.5 0 0 0 -6.528.725.5.5 0 0 1 -.221-.976 30.529 30.529 0 0 1 6.749-.75 31 31 0 0 1 30.963 30.965 30.708 30.708 0 0 1 -4.922 16.754.5.5 0 0 1 -.419.228z"/><path d="m15.2 23.7c-2.065 0-5.932-.312-8.246-2.442a5.81 5.81 0 0 1 -1.854-4.531 23.187 23.187 0 0 1 .862-5.062c.818-3.348 1.593-6.51-.669-8.27a.5.5 0 1 1 .607-.79c2.778 2.158 1.89 5.787 1.031 9.295a22.579 22.579 0 0 0 -.831 4.836 4.849 4.849 0 0 0 1.537 3.781c2.88 2.65 8.811 2.137 8.869 2.129a.505.505 0 0 1 .544.452.5.5 0 0 1 -.452.544c-.075.007-.598.058-1.398.058z"/><path d="m65.336 61.026a.5.5 0 0 1 -.429-.758l.474-.8a.5.5 0 0 1 .863.506l-.479.813a.5.5 0 0 1 -.429.239z"/><path d="m53.836 70.945a.5.5 0 0 1 -.229-.945 31.749 31.749 0 0 0 9.036-6.92.5.5 0 0 1 .74.673 32.762 32.762 0 0 1 -9.319 7.137.5.5 0 0 1 -.228.055z"/><path d="m26.556 12.546a.5.5 0 0 1 -.2-.96 32.468 32.468 0 0 1 10.019-2.486.5.5 0 0 1 .084 1 31.488 31.488 0 0 0 -9.707 2.407.5.5 0 0 1 -.196.039z"/><path d="m40.167 10h-.016-.233c-.258-.009-.516-.018-.776-.018a.5.5 0 0 1 0-1c.271 0 .541.009.811.019l.23.008a.5.5 0 0 1 -.016 1z"/><path d="m39.142 71.5a29.761 29.761 0 1 1 29.758-29.761 29.8 29.8 0 0 1 -29.758 29.761zm0-58.522a28.761 28.761 0 1 0 28.758 28.761 28.794 28.794 0 0 0 -28.758-28.761z"/></g><path d="m23.66 60.867a.7.7 0 0 1 -.45-.165 24.94 24.94 0 0 1 -6.794-9.089.7.7 0 1 1 1.283-.559 23.546 23.546 0 0 0 6.411 8.577.7.7 0 0 1 -.45 1.236z" fill="#fff"/><path d="m15.9 48.7a.7.7 0 0 1 -.676-.518l-.089-.317c-.067-.236-.134-.472-.187-.713a.7.7 0 0 1 1.367-.3c.048.215.107.424.167.634l.094.335a.7.7 0 0 1 -.494.858.689.689 0 0 1 -.182.021z" fill="#fff"/><path d="m19.274 63.729a.5.5 0 0 1 -.5-.446 31.048 31.048 0 0 1 24.481-33.733.5.5 0 1 1 .207.979 30.046 30.046 0 0 0 -23.69 32.646.5.5 0 0 1 -.442.551z" fill="#323c6b"/></g></svg>