<svg height="512" viewBox="0 0 74 74" width="512" xmlns="http://www.w3.org/2000/svg"><g id="line_color" data-name="line color"><path d="m34.377 45.271v23.411a1.783 1.783 0 0 1 -1.783 1.783h-17.066a1.783 1.783 0 0 1 -1.783-1.783v-23.411a3.764 3.764 0 0 1 .821-2.347l3.709-4.65a3.764 3.764 0 0 0 .821-2.347v-2.182h9.929v2.182a3.764 3.764 0 0 0 .821 2.347l3.709 4.65a3.764 3.764 0 0 1 .822 2.347z" fill="#eeefee"/><path d="m34.378 45.27v23.414a1.78 1.78 0 0 1 -1.778 1.781h-2.15a1.78 1.78 0 0 0 1.781-1.781v-23.414a3.753 3.753 0 0 0 -.816-2.345l-3.715-4.65a3.777 3.777 0 0 1 -.823-2.351v-2.176h2.15v2.176a3.771 3.771 0 0 0 .816 2.351l3.711 4.65a3.758 3.758 0 0 1 .824 2.345z" fill="#e1e6e9"/><path d="m28.783 33.745h-9.444a1.594 1.594 0 0 1 -1.524-1.655 1.594 1.594 0 0 1 1.524-1.655h9.444a1.594 1.594 0 0 1 1.524 1.655 1.594 1.594 0 0 1 -1.524 1.655z" fill="#9297ab"/><path d="m28.783 34.245h-9.444a2.16 2.16 0 0 1 0-4.311h9.444a2.16 2.16 0 0 1 0 4.311zm-9.444-3.311a1.164 1.164 0 0 0 0 2.311h9.444a1.164 1.164 0 0 0 0-2.311z" fill="#323c6b"/><path d="m13.745 47.947h20.632v15.029h-20.632z" fill="#fcd462"/><path d="m32.231 47.949h2.144v15.026h-2.144z" fill="#f7be56"/><path d="m59.82 21.858v34.433l-20.227.01-.01-34.454a2.752 2.752 0 0 1 2.742-2.747l14.762.01a2.73 2.73 0 0 1 2.733 2.748z" fill="#eeefee"/><path d="m56.1 56.27h-.471l.042.021 4.146.01-.01-34.454a2.714 2.714 0 0 0 -2.732-2.732l-3.34-.01a2.736 2.736 0 0 1 2.365 2.721z" fill="#d5d6db"/><path d="m62.47 56.8h-25.524a.5.5 0 0 1 0-1h25.524a.5.5 0 0 1 0 1z" fill="#323c6b"/><path d="m46.168 13.6h7.08a0 0 0 0 1 0 0v4.47a1.039 1.039 0 0 1 -1.039 1.039h-5a1.039 1.039 0 0 1 -1.039-1.039v-4.47a0 0 0 0 1 0 0z" fill="#9297ab" transform="matrix(-1 0 0 -1 99.416 32.71)"/><path d="m53.248 19.608h-7.08a.5.5 0 0 1 -.5-.5v-4.467a1.541 1.541 0 0 1 1.539-1.541h5a1.541 1.541 0 0 1 1.539 1.539v4.468a.5.5 0 0 1 -.498.501zm-6.58-1h6.08v-3.967a.54.54 0 0 0 -.539-.539h-5a.54.54 0 0 0 -.539.539z" fill="#323c6b"/><path d="m47.052 56.297h5.313v14.167h-5.313z" fill="#d5d6db" transform="matrix(-1 0 0 -1 99.416 126.761)"/><path d="m52.364 70.964h-5.312a.5.5 0 0 1 -.5-.5v-14.164a.5.5 0 0 1 .5-.5h5.313a.5.5 0 0 1 .5.5v14.164a.5.5 0 0 1 -.501.5zm-4.812-1h4.313v-13.164h-4.313z" fill="#323c6b"/><path d="m55.779 70.964h-12.142a.5.5 0 0 1 0-1h12.142a.5.5 0 0 1 0 1z" fill="#323c6b"/><path d="m49.708 14.1a.5.5 0 0 1 -.5-.5v-9.425a.5.5 0 0 1 1 0v9.425a.5.5 0 0 1 -.5.5z" fill="#323c6b"/><path d="m11.53 42.015a.5.5 0 0 1 -.391-.812l2.761-3.459a.5.5 0 1 1 .781.623l-2.759 3.459a.5.5 0 0 1 -.392.189z" fill="#323c6b"/><path d="m15.616 36.891a.494.494 0 0 1 -.312-.11.5.5 0 0 1 -.078-.7 1.358 1.358 0 0 0 .257-.541.5.5 0 0 1 .973.235 2.373 2.373 0 0 1 -.448.931.5.5 0 0 1 -.392.185z" fill="#323c6b"/><path d="m32.594 70.964h-17.066a2.286 2.286 0 0 1 -2.283-2.283v-23.41a4.279 4.279 0 0 1 .931-2.658l3.709-4.65a3.276 3.276 0 0 0 .712-2.035v-2.183a.5.5 0 0 1 .5-.5h9.929a.5.5 0 0 1 .5.5v2.182a3.28 3.28 0 0 0 .712 2.035l3.709 4.65a4.279 4.279 0 0 1 .931 2.658v23.412a2.286 2.286 0 0 1 -2.284 2.282zm-13-36.72v1.682a4.273 4.273 0 0 1 -.931 2.659l-3.709 4.65a3.281 3.281 0 0 0 -.712 2.035v23.412a1.284 1.284 0 0 0 1.283 1.283h17.069a1.284 1.284 0 0 0 1.283-1.283v-23.411a3.281 3.281 0 0 0 -.712-2.035l-3.709-4.65a4.277 4.277 0 0 1 -.931-2.658v-1.683z" fill="#323c6b"/><path d="m34.377 63.476h-20.632a.5.5 0 0 1 -.5-.5v-15.029a.5.5 0 0 1 .5-.5h20.632a.5.5 0 0 1 .5.5v15.029a.5.5 0 0 1 -.5.5zm-20.132-1h19.632v-14.029h-19.632z" fill="#323c6b"/><path d="m39.593 56.8a.5.5 0 0 1 -.5-.5l-.011-34.454a3.247 3.247 0 0 1 3.243-3.246l14.762.011a3.228 3.228 0 0 1 3.232 3.245v34.435a.5.5 0 0 1 -.5.5l-20.227.01zm2.732-37.2a2.245 2.245 0 0 0 -2.243 2.243l.011 33.957 19.227-.009v-33.937a2.229 2.229 0 0 0 -2.232-2.239z" fill="#323c6b"/><path d="m24.921 61.379a.459.459 0 0 1 0-.919h.644a.459.459 0 0 1 0 .919z" fill="#fff"/><path d="m17.853 61.393a.459.459 0 1 1 0-.919l5.1-.008a.459.459 0 1 1 0 .919z" fill="#fff"/><g fill="#323c6b"><path d="m44.459 25.146h-2.159a.5.5 0 0 1 0-1h2.16a.5.5 0 0 1 0 1z"/><path d="m43.411 29.76h-1.111a.5.5 0 0 1 0-1h1.112a.5.5 0 0 1 0 1z"/><path d="m44.459 34.375h-2.159a.5.5 0 0 1 0-1h2.16a.5.5 0 1 1 0 1z"/><path d="m43.411 38.989h-1.111a.5.5 0 0 1 0-1h1.112a.5.5 0 0 1 0 1z"/><path d="m44.459 43.6h-2.159a.5.5 0 1 1 0-1h2.16a.5.5 0 0 1 0 1z"/><path d="m43.411 48.219h-1.111a.5.5 0 0 1 0-1h1.112a.5.5 0 0 1 0 1z"/><path d="m44.459 52.833h-2.159a.5.5 0 1 1 0-1h2.16a.5.5 0 0 1 0 1z"/><path d="m36.338 33.084a.5.5 0 0 1 -.5-.5v-.772a.5.5 0 1 1 1 0v.772a.5.5 0 0 1 -.5.5z"/><path d="m36.41 30.063a.5.5 0 0 1 -.5-.5l-.05-7.714a.5.5 0 0 1 .5-.5.524.524 0 0 1 .5.5l.05 7.714a.5.5 0 0 1 -.5.5z"/></g></g></svg>