<svg height="512" viewBox="0 0 74 74" width="512" xmlns="http://www.w3.org/2000/svg"><g id="line_color" data-name="line color"><path d="m62.725 16.674a8.17 8.17 0 1 0 -13.1 4.259l-31.178 24.636a8.148 8.148 0 1 0 -7.172 11.757 8.17 8.17 0 1 0 13.1-4.259l31.18-24.637a8.148 8.148 0 1 0 7.172-11.757z" fill="#eeefee"/><path d="m51.516 23-33.323 26.23c-.626-.887-.916-1.367-1.276-1.827-2.79-3.53-7.287-4.573-10.817-1.783a8.108 8.108 0 0 0 -2.97 4.98 8.15 8.15 0 0 1 14.42-6.47 8.416 8.416 0 0 1 .9 1.44l31.18-24.612c.1.15.21.3.32.44a14.682 14.682 0 0 0 1.566 1.602z" fill="#e1e6e9"/><path d="m62.85 16.06a8.008 8.008 0 0 0 -1.62-3.61 8.149 8.149 0 0 0 -14.42 3.64 8.145 8.145 0 1 1 16.04-.03z" fill="#e1e6e9"/><path d="m11.777 54.014a7.585 7.585 0 0 1 -1.163-.086.7.7 0 0 1 -.584-.8.708.708 0 0 1 .8-.584 6.345 6.345 0 0 0 1.094.069.68.68 0 0 1 .715.685.7.7 0 0 1 -.686.714z" fill="#fff"/><path d="m7.895 52.458a.7.7 0 0 1 -.55-.267 4.851 4.851 0 0 1 .8-6.814.7.7 0 0 1 .867 1.1 3.451 3.451 0 0 0 -.567 4.849.7.7 0 0 1 -.55 1.134z" fill="#fff"/><g fill="#323c6b"><path d="m43.694 42.234a.5.5 0 0 1 -.31-.893l.376-.3a.5.5 0 1 1 .619.785l-.376.3a.5.5 0 0 1 -.309.108z"/><path d="m34.471 49.412a.5.5 0 0 1 -.308-.894l7.323-5.725a.5.5 0 0 1 .615.788l-7.323 5.725a.5.5 0 0 1 -.307.106z"/><path d="m45.433 9.192a.5.5 0 0 1 -.424-.765c.154-.249.32-.492.5-.727a.5.5 0 0 1 .8.6c-.16.213-.309.433-.449.657a.5.5 0 0 1 -.427.235z"/><path d="m48.167 6.241a.5.5 0 0 1 -.3-.9 11.81 11.81 0 0 1 10.166-1.873.5.5 0 0 1 -.275.961 10.8 10.8 0 0 0 -9.292 1.713.5.5 0 0 1 -.299.099z"/><path d="m19.186 67.982a8.827 8.827 0 0 1 -1.024-.06 8.638 8.638 0 0 1 -7.5-10.109 8.645 8.645 0 0 1 -4.873-15.413 8.661 8.661 0 0 1 12.151 1.42 8.21 8.21 0 0 1 .666.986l30.242-23.9a8.318 8.318 0 0 1 -.8-.876 8.651 8.651 0 1 1 15.3-3.848 8.645 8.645 0 0 1 4.863 15.418 8.662 8.662 0 0 1 -12.151-1.42 8.21 8.21 0 0 1 -.666-.986l-30.242 23.9a8.318 8.318 0 0 1 .8.876 8.654 8.654 0 0 1 -6.771 14.017zm-7.91-11.156a.5.5 0 0 1 .484.623 7.669 7.669 0 1 0 12.293-4 .5.5 0 0 1 .01-.777l31.18-24.633a.49.49 0 0 1 .419-.1.5.5 0 0 1 .339.266 7.564 7.564 0 0 0 5.956 4.207 7.648 7.648 0 1 0 .774-15.242.5.5 0 0 1 -.491-.623 7.669 7.669 0 1 0 -12.293 4 .5.5 0 0 1 -.01.777l-31.18 24.637a.494.494 0 0 1 -.419.1.5.5 0 0 1 -.338-.27 7.564 7.564 0 0 0 -5.956-4.207 7.648 7.648 0 1 0 -.774 15.242z"/></g></g></svg>