<svg height="512" viewBox="0 0 74 74" width="512" xmlns="http://www.w3.org/2000/svg"><g id="line_color" data-name="line color"><path d="m37 3a34 34 0 1 0 34 34 34 34 0 0 0 -34-34zm0 54.85a20.85 20.85 0 1 1 20.85-20.85 20.844 20.844 0 0 1 -20.85 20.85z" fill="#e7aa6c"/><path d="m37 3a33.92 33.92 0 0 0 -25.33 11.32 34 34 0 0 1 47.66 48.32 34 34 0 0 0 -22.33-59.64z" fill="#d09865"/><g fill="#323c6b"><path d="m37 58.35a21.35 21.35 0 1 1 21.35-21.35 21.374 21.374 0 0 1 -21.35 21.35zm0-41.7a20.35 20.35 0 1 0 20.35 20.35 20.373 20.373 0 0 0 -20.35-20.35z"/><path d="m37 11.962a.5.5 0 0 1 -.5-.5v-3.929a.5.5 0 0 1 1 0v3.929a.5.5 0 0 1 -.5.5z"/><path d="m37 58.354a.5.5 0 0 1 -.5-.5v-41.708a.5.5 0 0 1 1 0v41.708a.5.5 0 0 1 -.5.5z"/><path d="m22.254 52.246a.5.5 0 0 1 -.354-.854l29.492-29.492a.5.5 0 0 1 .707.707l-29.491 29.493a.5.5 0 0 1 -.354.146z"/><path d="m24.231 15.384a.5.5 0 0 1 -.434-.25l-1.964-3.4a.5.5 0 0 1 .866-.5l1.964 3.4a.5.5 0 0 1 -.433.75z"/><path d="m14.883 24.731a.5.5 0 0 1 -.25-.067l-3.4-1.964a.5.5 0 1 1 .5-.866l3.4 1.964a.5.5 0 0 1 -.25.933z"/><path d="m11.462 37.5h-3.929a.5.5 0 0 1 0-1h3.929a.5.5 0 0 1 0 1z"/><path d="m11.481 52.233a.5.5 0 0 1 -.25-.933l3.4-1.964a.5.5 0 0 1 .5.866l-3.4 1.964a.5.5 0 0 1 -.25.067z"/><path d="m22.266 63.019a.5.5 0 0 1 -.433-.75l1.964-3.4a.5.5 0 1 1 .866.5l-1.964 3.4a.5.5 0 0 1 -.433.25z"/><path d="m37 66.967a.5.5 0 0 1 -.5-.5v-3.929a.5.5 0 0 1 1 0v3.929a.5.5 0 0 1 -.5.5z"/><path d="m51.734 63.019a.5.5 0 0 1 -.434-.25l-1.964-3.4a.5.5 0 0 1 .866-.5l1.964 3.4a.5.5 0 0 1 -.433.75z"/><path d="m62.519 52.233a.5.5 0 0 1 -.25-.067l-3.4-1.964a.5.5 0 1 1 .5-.866l3.4 1.964a.5.5 0 0 1 -.25.933z"/><path d="m66.467 37.5h-3.929a.5.5 0 0 1 0-1h3.929a.5.5 0 0 1 0 1z"/><path d="m59.117 24.731a.5.5 0 0 1 -.25-.933l3.4-1.964a.5.5 0 0 1 .5.866l-3.4 1.964a.5.5 0 0 1 -.25.067z"/><path d="m49.769 15.384a.5.5 0 0 1 -.433-.75l1.964-3.4a.5.5 0 0 1 .866.5l-1.964 3.4a.5.5 0 0 1 -.433.25z"/><path d="m57.854 37.5h-41.708a.5.5 0 0 1 0-1h41.708a.5.5 0 1 1 0 1z"/><path d="m51.746 52.246a.5.5 0 0 1 -.354-.146l-29.492-29.492a.5.5 0 0 1 .707-.707l29.493 29.491a.5.5 0 0 1 -.354.854z"/><path d="m72.516 47.833a.5.5 0 0 1 -.48-.64q.126-.431.243-.864a.5.5 0 0 1 .966.259q-.119.445-.249.886a.5.5 0 0 1 -.48.359z"/><path d="m65.479 61.067a.5.5 0 0 1 -.385-.819 36.475 36.475 0 0 0 5.872-9.931.5.5 0 0 1 .931.366 37.482 37.482 0 0 1 -6.032 10.2.5.5 0 0 1 -.386.184z"/><path d="m6.887 16.072a.5.5 0 0 1 -.406-.791q.3-.416.6-.82a.5.5 0 1 1 .8.6q-.3.393-.586.8a.5.5 0 0 1 -.408.211z"/><path d="m9.309 13.032a.5.5 0 0 1 -.374-.832 39.676 39.676 0 0 1 4.424-4.251c.78-.645 3.169-2.325 3.27-2.4.306-.2.6-.385.892-.567a.5.5 0 1 1 .526.85q-.433.269-.859.546c-.009.01-2.442 1.722-3.188 2.341a38.645 38.645 0 0 0 -4.313 4.145.5.5 0 0 1 -.378.168z"/></g><path d="m28.54 65.52a8.914 8.914 0 0 0 2.27.76 8.539 8.539 0 0 1 -2.27-.76z" fill="#e0e0e0"/><path d="m37 71.5a34.5 34.5 0 1 1 34.5-34.5 34.539 34.539 0 0 1 -34.5 34.5zm0-68a33.5 33.5 0 1 0 33.5 33.5 33.538 33.538 0 0 0 -33.5-33.5zm0 54.85a21.35 21.35 0 1 1 21.35-21.35 21.374 21.374 0 0 1 -21.35 21.35zm0-41.7a20.35 20.35 0 1 0 20.35 20.35 20.373 20.373 0 0 0 -20.35-20.35z" fill="#323c6b"/><path d="m54.25 53.85c-.99 2.58-1.18 3.7-.27 3.91s2.19.31 2.82.43a1.141 1.141 0 0 1 .81 1.69l-.05.09a1.447 1.447 0 0 1 -.34.4 2.611 2.611 0 0 1 -1.84.63 11.625 11.625 0 0 1 -5.22-1.39c-1.33-.74-5.17.83-6.94 1.59a6.5 6.5 0 0 1 -1.97.26 4.589 4.589 0 0 0 -3.74 2.05 3.092 3.092 0 0 1 -.18.26 3.74 3.74 0 0 1 -.32.4c-.07.07-.13.14-.2.21l.08-.04c.21 1.37 1.99 2.93 2.29 3.5a1.137 1.137 0 0 1 -.81 1.68l-.11.02a1.576 1.576 0 0 1 -.53-.01c-2.78-.58-4.29-2.45-4.49-3.25a4.456 4.456 0 0 1 -.51.07 6.978 6.978 0 0 1 -1.92-.07 8.914 8.914 0 0 1 -2.27-.76c-5.53-3.76-4.1-8.75-3.27-10.83a14 14 0 0 1 3.8-4.97 12.929 12.929 0 0 1 11.34-2.48 8.092 8.092 0 0 0 4.75-.02.249.249 0 0 0 .07-.04 7.1 7.1 0 0 0 3.38-3.31c.67-1.34 2.02-3.54 4.34-3.39a10.8 10.8 0 0 1 7.5 3.9c1.48 1.66-1.9 3.19-2.88 3.9-1.25.9-2.34 3-3.32 5.57z" fill="#eeefee"/><path d="m16.454 60.368h-.1a3.58 3.58 0 0 1 -2.75-1.561.5.5 0 1 1 .79-.612 2.6 2.6 0 0 0 1.987 1.173c1.627.09 3.146-1.653 3.162-1.67 2.5-3.224 5.331-2.379 5.449-2.343a.5.5 0 0 1 -.3.955c-.092-.028-2.307-.653-4.382 2.024-.087.105-1.802 2.034-3.856 2.034z" fill="#323c6b"/><path d="m60.67 45.79a10.455 10.455 0 0 0 -6.55-2.91c-2.32-.15-3.67 2.05-4.35 3.38a7.1 7.1 0 0 1 -3.37 3.32c-.03.01-.05.02-.08.03a7.978 7.978 0 0 1 -4.74.02 12.96 12.96 0 0 0 -11.34 2.48 13.978 13.978 0 0 0 -3.8 4.98 9.3 9.3 0 0 0 -.51 5.97 8.521 8.521 0 0 1 -.66-8.37 14 14 0 0 1 3.8-4.97 12.929 12.929 0 0 1 11.34-2.48 8.092 8.092 0 0 0 4.75-.02.249.249 0 0 0 .07-.04 7.1 7.1 0 0 0 3.38-3.31c.67-1.34 2.02-3.54 4.34-3.39a10.8 10.8 0 0 1 7.5 3.9 1.167 1.167 0 0 1 .22 1.41z" fill="#e1e6e9"/><circle cx="52.742" cy="43.999" fill="#323c6b" r="1.168"/><path d="m38.041 70.058a2.377 2.377 0 0 1 -.394-.035 6.909 6.909 0 0 1 -4.728-3.188 8.181 8.181 0 0 1 -4.6-.865c-4.129-2.8-5.355-6.859-3.517-11.466a14.534 14.534 0 0 1 3.942-5.167 13.473 13.473 0 0 1 11.778-2.583 7.43 7.43 0 0 0 4.424.012.47.47 0 0 1 .077-.042 6.634 6.634 0 0 0 3.138-3.081c1.277-2.552 2.9-3.776 4.818-3.662a11.143 11.143 0 0 1 7.841 4.066 1.707 1.707 0 0 1 .48 1.423c-.179 1.206-1.687 2.127-2.788 2.8-.261.16-.491.3-.651.415-1.029.741-2.058 2.489-3.146 5.344-.282.734-1.03 2.683-.779 3.154.011.021.032.061.154.089.521.122 1.192.207 1.783.281.4.051.762.1 1.018.146a1.641 1.641 0 0 1 1.153 2.425l-.044.088a1.959 1.959 0 0 1 -.468.551 3.1 3.1 0 0 1 -2.118.736 12.137 12.137 0 0 1 -5.493-1.452c-.18-.1-1.419-.478-8.344 1.832l-.168.056a13.835 13.835 0 0 0 -3.972 2.549 7.419 7.419 0 0 0 1.516 2.257 5.571 5.571 0 0 1 .672.866 1.661 1.661 0 0 1 .029 1.526 1.6 1.6 0 0 1 -1.205.881l-.1.018a1.8 1.8 0 0 1 -.308.026zm-4.8-4.278a.5.5 0 0 1 .485.379 5.628 5.628 0 0 0 4.106 2.882 1.025 1.025 0 0 0 .341.007l.107-.02a.62.62 0 0 0 .475-.339.656.656 0 0 0 -.015-.61 5.978 5.978 0 0 0 -.547-.684 7.588 7.588 0 0 1 -1.75-2.744.47.47 0 0 1 .013-.625 15.407 15.407 0 0 1 4.637-3.042l.165-.055c7.69-2.566 8.785-1.958 9.145-1.757a11.156 11.156 0 0 0 4.948 1.328 2.12 2.12 0 0 0 1.546-.512.982.982 0 0 0 .235-.276l.041-.075a.639.639 0 0 0 .025-.593.653.653 0 0 0 -.485-.362c-.247-.047-.586-.089-.962-.137-.616-.078-1.313-.166-1.884-.3a1.174 1.174 0 0 1 -.811-.593c-.348-.653-.164-1.658.728-3.982 1.176-3.085 2.287-4.927 3.494-5.8.176-.127.428-.282.716-.458.826-.5 2.209-1.349 2.319-2.092a.716.716 0 0 0 -.236-.611 10.19 10.19 0 0 0 -7.158-3.733c-1.512-.105-2.765.922-3.862 3.115a7.646 7.646 0 0 1 -3.6 3.531.814.814 0 0 1 -.084.046 8.194 8.194 0 0 1 -5.08.056 12.467 12.467 0 0 0 -10.9 2.375 13.3 13.3 0 0 0 -3.658 4.775c-1.164 2.917-1.574 7.061 3.087 10.229a7.01 7.01 0 0 0 4.328.682.481.481 0 0 1 .091-.005z" fill="#323c6b"/><path d="m35.394 62.033a.7.7 0 0 1 -.5-1.2 18.093 18.093 0 0 1 4.689-3.08c.327-.123.868-.314 1.529-.531a.7.7 0 0 1 .437 1.33c-.638.209-1.158.393-1.474.511a16.7 16.7 0 0 0 -4.191 2.76.7.7 0 0 1 -.49.21z" fill="#fff"/><path d="m44.427 57.68a.7.7 0 0 1 -.174-1.378c.192-.05.384-.1.574-.142a.7.7 0 0 1 .322 1.362c-.181.043-.364.088-.547.135a.7.7 0 0 1 -.175.023z" fill="#fff"/></g></svg>