<svg height="512" viewBox="0 0 74 74" width="512" xmlns="http://www.w3.org/2000/svg"><g id="line_color" data-name="line color"><path d="m52.821 63.172h-31.642a1.8 1.8 0 0 1 -1.77-1.828v-3.028h35.182v3.027a1.8 1.8 0 0 1 -1.77 1.829z" fill="#e7aa6c"/><path d="m3 33.112c.835 10.162 8.517 22.288 16.409 25.2h35.182c7.892-2.912 15.574-15.039 16.409-25.2z" fill="#e7aa6c"/><path d="m54.185 58.32v3.02a1.8 1.8 0 0 1 -1.77 1.83h-2.43a1.8 1.8 0 0 0 1.77-1.83v-3.02z" fill="#d09865"/><path d="m70.625 33.11c-.83 10.16-8.52 22.29-16.41 25.21h-3.548c7.89-2.92 16.158-15.05 16.988-25.21z" fill="#d09865"/><path d="m5.709 33.112h62.221a10.367 10.367 0 0 0 .351-3.941 10.571 10.571 0 0 0 -11.6-9.429c-.194.02-.381.058-.571.088-.008-.251-.013-.5-.04-.754a10.57 10.57 0 0 0 -18.7-5.6 11.537 11.537 0 0 0 -17.629 7.877 10.553 10.553 0 0 0 -14.146 11c.022.269.068.503.114.759z" fill="#eeefee"/><path d="m67.93 33.11h-1.88a9.993 9.993 0 0 0 -.05-1.44 10.567 10.567 0 0 0 -11.6-9.43c-.19.02-.38.06-.57.09-.01-.25-.01-.5-.04-.75a10.568 10.568 0 0 0 -18.7-5.6 11.535 11.535 0 0 0 -13.52.76 11.52 11.52 0 0 1 15.79-3.26 10.576 10.576 0 0 1 18.71 5.6c.03.25.03.5.04.75.19-.03.38-.07.57-.09a10.567 10.567 0 0 1 11.6 9.43 10.328 10.328 0 0 1 -.35 3.94z" fill="#e1e6e9"/><g fill="#323c6b"><path d="m71.434 45.125a.5.5 0 0 1 -.472-.667c.068-.192.132-.385.2-.579l.15-.448a.5.5 0 0 1 .945.325l-.146.437c-.066.2-.132.4-.2.6a.5.5 0 0 1 -.477.332z"/><path d="m65.827 55.329a.5.5 0 0 1 -.39-.813 34.028 34.028 0 0 0 4.379-7.253.5.5 0 1 1 .91.413 34.935 34.935 0 0 1 -4.51 7.466.5.5 0 0 1 -.389.187z"/><path d="m21.57 12.75a.5.5 0 0 1 -.329-.876 14.921 14.921 0 0 1 8.345-3.648c.414-.042.832-.056 1.247-.065h.011a.5.5 0 0 1 .011 1c-.39.008-.78.02-1.166.06a13.933 13.933 0 0 0 -7.789 3.405.5.5 0 0 1 -.33.124z"/><path d="m34.656 9.6a.511.511 0 0 1 -.12-.015c-.4-.1-.8-.187-1.211-.254a.5.5 0 0 1 .162-.987c.434.071.863.165 1.289.271a.5.5 0 0 1 -.12.985z"/><path d="m67.93 33.612h-62.221a.5.5 0 0 1 -.492-.412l-.02-.108c-.041-.227-.08-.443-.1-.681a11.085 11.085 0 0 1 9.87-12.151 10.878 10.878 0 0 1 4.383.438 12.07 12.07 0 0 1 10.544-9.488 11.916 11.916 0 0 1 7.367 1.618 11.07 11.07 0 0 1 19.306 6.2c.008.075.015.15.02.225h.042a11.071 11.071 0 0 1 12.149 9.875 10.877 10.877 0 0 1 -.367 4.13.5.5 0 0 1 -.481.354zm-61.8-1h61.415a9.873 9.873 0 0 0 .238-3.39 10.071 10.071 0 0 0 -11.052-8.983c-.124.013-.246.034-.367.055l-.176.029a.5.5 0 0 1 -.579-.476v-.117c-.006-.2-.013-.4-.033-.6a10.071 10.071 0 0 0 -17.82-5.333.5.5 0 0 1 -.657.1 10.908 10.908 0 0 0 -7.099-1.691 11.068 11.068 0 0 0 -9.769 9.23.5.5 0 0 1 -.665.39 9.962 9.962 0 0 0 -4.493-.57 10.083 10.083 0 0 0 -8.986 11.052c.013.105.025.205.041.304z"/><path d="m52.821 63.672h-31.642a2.3 2.3 0 0 1 -2.27-2.328v-3.028a.5.5 0 0 1 .5-.5h35.182a.5.5 0 0 1 .5.5v3.027a2.3 2.3 0 0 1 -2.27 2.329zm-32.912-4.856v2.527a1.3 1.3 0 0 0 1.27 1.328h31.642a1.3 1.3 0 0 0 1.27-1.328v-2.527z"/><path d="m54.591 58.816h-35.182a.5.5 0 0 1 -.174-.031c-7.895-2.918-15.871-15.136-16.735-25.632a.5.5 0 0 1 .5-.541h68a.5.5 0 0 1 .5.541c-.862 10.5-8.838 22.714-16.733 25.632a.5.5 0 0 1 -.176.031zm-35.091-1h35c7.422-2.807 14.9-14.2 15.951-24.2h-66.902c1.051 9.997 8.529 21.393 15.951 24.2z"/></g><path d="m14.567 50.712a.65.65 0 0 1 -.5-.232q-.289-.344-.57-.7a.65.65 0 1 1 1.018-.809q.271.342.549.672a.65.65 0 0 1 -.5 1.068z" fill="#fff"/><path d="m11.9 47.082a.651.651 0 0 1 -.548-.3 38.789 38.789 0 0 1 -3.673-7.275.65.65 0 0 1 1.221-.458 37.379 37.379 0 0 0 3.55 7.03.65.65 0 0 1 -.2.9.643.643 0 0 1 -.35.103z" fill="#fff"/><path d="m47.262 42.715a2.429 2.429 0 0 0 .794-2.35 2.828 2.828 0 0 0 -3.582-1.689 2.828 2.828 0 0 0 -2.35 3.188l.11.437-11.268 2.835-.11-.437a2.828 2.828 0 0 0 -3.582-1.689 2.828 2.828 0 0 0 -2.35 3.188 2.429 2.429 0 0 0 1.815 1.69 2.429 2.429 0 0 0 -.794 2.35 2.828 2.828 0 0 0 3.583 1.689 2.828 2.828 0 0 0 2.35-3.188l-.11-.437 11.268-2.835.11.437a2.828 2.828 0 0 0 3.583 1.689 2.828 2.828 0 0 0 2.35-3.188 2.43 2.43 0 0 0 -1.817-1.69z" fill="#eeefee"/><path d="m28.634 52.54a3.135 3.135 0 0 1 -3.175-2.179 2.782 2.782 0 0 1 .441-2.261 2.783 2.783 0 0 1 -1.464-1.779 3.325 3.325 0 0 1 2.713-3.8 3.906 3.906 0 0 1 2.613.217 2.8 2.8 0 0 1 1.563 1.787l10.3-2.591a3.338 3.338 0 0 1 2.724-3.747 3.322 3.322 0 0 1 4.19 2.051 2.782 2.782 0 0 1 -.439 2.262 2.783 2.783 0 0 1 1.464 1.779 3.325 3.325 0 0 1 -2.713 3.8 3.906 3.906 0 0 1 -2.613-.217 2.8 2.8 0 0 1 -1.563-1.787l-10.3 2.591a2.792 2.792 0 0 1 -.526 2.314 3.9 3.9 0 0 1 -2.2 1.433 4.152 4.152 0 0 1 -1.015.127zm-.457-9.14a3.188 3.188 0 0 0 -.78.1 2.34 2.34 0 0 0 -1.989 2.581 1.941 1.941 0 0 0 1.46 1.33.5.5 0 0 1 .214.847 1.938 1.938 0 0 0 -.653 1.863 2.338 2.338 0 0 0 2.971 1.321 2.9 2.9 0 0 0 1.637-1.056 1.808 1.808 0 0 0 .351-1.524l-.11-.436a.5.5 0 0 1 .362-.608l11.269-2.835a.491.491 0 0 1 .379.056.5.5 0 0 1 .229.308l.109.433a1.808 1.808 0 0 0 1.033 1.178 2.91 2.91 0 0 0 1.941.151 2.34 2.34 0 0 0 1.989-2.581 1.941 1.941 0 0 0 -1.46-1.33.5.5 0 0 1 -.214-.847 1.938 1.938 0 0 0 .653-1.863 2.339 2.339 0 0 0 -2.968-1.327 2.34 2.34 0 0 0 -1.988 2.581l.111.438a.5.5 0 0 1 -.363.606l-11.272 2.835a.5.5 0 0 1 -.607-.364l-.11-.437a1.807 1.807 0 0 0 -1.032-1.174 2.725 2.725 0 0 0 -1.162-.246z" fill="#323c6b"/></g></svg>