<svg height="512" viewBox="0 0 74 74" width="512" xmlns="http://www.w3.org/2000/svg"><g id="line_color" data-name="line color"><path d="m65.8 43.418-28.8-27.064-28.8 27.064-5.2-5.53 31.4-29.505a3.793 3.793 0 0 1 5.2 0l31.4 29.505z" fill="#fcd462"/><path d="m63.956 54.875a.5.5 0 0 1 -.5-.5v-.667a.5.5 0 0 1 1 0v.667a.5.5 0 0 1 -.5.5z" fill="#323c6b"/><path d="m63.956 65.688a.5.5 0 0 1 -.5-.5v-8.323a.5.5 0 0 1 1 0v8.323a.5.5 0 0 1 -.5.5z" fill="#323c6b"/><path d="m29.226 9.63a.5.5 0 0 1 -.342-.865l.393-.368a.5.5 0 1 1 .684.729l-.393.368a.5.5 0 0 1 -.342.136z" fill="#323c6b"/><path d="m31.125 7.854a.5.5 0 0 1 -.344-.863l1.219-1.158a7.294 7.294 0 0 1 9.991 0 .5.5 0 0 1 -.686.729 6.293 6.293 0 0 0 -8.619 0l-1.217 1.156a.5.5 0 0 1 -.344.136z" fill="#323c6b"/><path d="m13.045 39.077v28.673h47.91v-28.673l-23.955-22.723z" fill="#e1e6e9"/><path d="m39.6 8.38a3.8 3.8 0 0 0 -5.2 0l-2.389 2.245h.035a3.782 3.782 0 0 1 5.054.1l29.427 27.691-2.86 3.05 2.133 1.954 5.2-5.53z" fill="#f7be56"/><path d="m60.96 39.08v28.67h-3v-31.52z" fill="#d5d6db"/><path d="m13.045 64.737h46.103v3.013h-46.103z" fill="#d5d6db"/><path d="m37 45.98a8.145 8.145 0 0 1 8.145 8.145v13.625a0 0 0 0 1 0 0h-16.29a0 0 0 0 1 0 0v-13.625a8.145 8.145 0 0 1 8.145-8.145z" fill="#9297ab"/><path d="m45.146 68.25h-16.292a.5.5 0 0 1 -.5-.5v-13.625a8.646 8.646 0 1 1 17.291 0v13.625a.5.5 0 0 1 -.499.5zm-15.791-1h15.291v-13.125a7.646 7.646 0 1 0 -15.291 0z" fill="#323c6b"/><g fill="#9a9eaf"><ellipse cx="34.005" cy="28.981" rx="1.877" ry="2.481"/><ellipse cx="29.466" cy="33.478" rx="1.652" ry="2.183"/><ellipse cx="39.995" cy="28.981" rx="1.877" ry="2.481"/><ellipse cx="44.534" cy="33.478" rx="1.652" ry="2.183"/><path d="m30.92 38.8a5.875 5.875 0 0 1 6.08-6.192 5.875 5.875 0 0 1 6.08 6.192c0 3.86-2.722 2.232-6.08 2.232s-6.08 1.63-6.08-2.232z"/></g><path d="m65.8 43.918a.5.5 0 0 1 -.342-.136l-28.458-26.742-28.462 26.742a.452.452 0 0 1 -.358.135.5.5 0 0 1 -.349-.157l-5.2-5.53a.5.5 0 0 1 .022-.707l31.4-29.5a4.3 4.3 0 0 1 5.88 0l31.4 29.5a.5.5 0 0 1 .022.707l-5.2 5.53a.5.5 0 0 1 -.349.157zm-28.8-28.064a.5.5 0 0 1 .342.136l28.44 26.722 4.511-4.8-31.038-29.164a3.3 3.3 0 0 0 -4.511 0l-31.037 29.162 4.511 4.8 28.44-26.72a.5.5 0 0 1 .342-.136z" fill="#323c6b"/><path d="m60.956 68.25h-47.912a.5.5 0 0 1 -.5-.5v-28.673a.5.5 0 0 1 .156-.363l23.956-22.723a.5.5 0 0 1 .688 0l23.956 22.723a.5.5 0 0 1 .156.363v28.673a.5.5 0 0 1 -.5.5zm-47.411-1h46.911v-27.958l-23.456-22.249-23.456 22.249z" fill="#323c6b"/><path d="m9.953 37.543a.7.7 0 0 1 -.029.99l-.313.3a.7.7 0 0 1 -.961-1.019l.313-.3a.7.7 0 0 1 .99.029z" fill="#fff"/><path d="m17.468 30.452a.7.7 0 0 1 -.029.99l-5.628 5.311a.7.7 0 0 1 -.961-1.019l5.628-5.311a.7.7 0 0 1 .99.029z" fill="#fff"/></g></svg>